# xmcd
#
# Track frame offsets: 
#        150
#        17603
#        36714
#        52188
#        68201
#        83703
#        102944
#        115518
#        132297
#        152514
#        164938
#        179792
#
# Disc length: 2664 seconds
#
# Revision: 0
# Processed by: cddbd v1.5.2PL0 Copyright (c) Steve Scherf et al.
# Submitted via: ExactAudioCopy v0.95b4
#
DISCID=a90a660c
DTITLE=Pete Martinez - I Would For You
DYEAR=2006
DGENRE=Country
TTITLE0=Don't Start Something
TTITLE1=I Would For You
TTITLE2=Little Hurt Goes A Long Way
TTITLE3=Goodbye Is The Wrong Way To Go
TTITLE4=Bull Rider
TTITLE5=Song Of Wyoming
TTITLE6=Time After Time
TTITLE7=Find Another Fool
TTITLE8=Singin' The Blues
TTITLE9=Years From Now
TTITLE10=This Old Guitar
TTITLE11=I Hear You Knockin'
EXTD=
EXTT0=
EXTT1=
EXTT2=
EXTT3=
EXTT4=
EXTT5=
EXTT6=
EXTT7=
EXTT8=
EXTT9=
EXTT10=
EXTT11=
PLAYORDER=
